<svg width="25" height="23" viewBox="0 0 25 23" fill="none" xmlns="http://www.w3.org/2000/svg">
<path d="M6.76559 18.9625C7.70034 18.9625 10.0294 17.9421 11.3536 16.9995C11.4861 16.8983 11.5951 16.8593 11.7042 16.8593C11.8054 16.8749 11.9067 16.8749 12.008 16.8749C17.6242 16.8749 21.3476 13.6812 21.3476 9.802C21.3476 5.88386 17.4217 2.7213 12.5143 2.7213C7.60686 2.7213 3.68093 5.88386 3.68093 9.802C3.68093 12.3024 5.21547 14.4913 7.71592 15.8233C7.83276 15.8856 7.87171 16.0025 7.80939 16.1271C7.37318 16.8438 6.59422 17.7006 6.29822 18.0901C5.99443 18.4796 6.1658 18.9625 6.76559 18.9625Z" fill="#121A35"/>
</svg>
