<svg width="18" height="18" viewBox="0 0 18 18" fill="none" xmlns="http://www.w3.org/2000/svg">
<path d="M1.40466 8.97327H4.02195V16.3017H1.40466V8.97327Z" fill="#121A35"/>
<path d="M12.3973 16.3017H5.06885V8.55295L6.66121 6.16441L7.10353 3.06711C7.14022 2.81809 7.26496 2.59048 7.45513 2.42558C7.64529 2.26067 7.88827 2.1694 8.13997 2.16833H8.20959C8.62596 2.16875 9.02515 2.33433 9.31956 2.62875C9.61397 2.92316 9.77955 3.32235 9.77997 3.73871V6.87946H13.9676C14.5227 6.88015 15.0549 7.10097 15.4474 7.49349C15.8399 7.88601 16.0608 8.41818 16.0615 8.97329V12.6375C16.0604 13.609 15.674 14.5403 14.987 15.2273C14.3001 15.9142 13.3687 16.3006 12.3973 16.3017Z" fill="#121A35"/>
</svg>
